<svg width="25" height="25" viewBox="0 0 25 25" fill="none" xmlns="http://www.w3.org/2000/svg">
<g id="Group 348">
<g id="Group">
<path id="Vector" d="M12.5002 2.08325C6.75016 2.08325 2.0835 6.74992 2.0835 12.4999C2.0835 18.2499 6.75016 22.9166 12.5002 22.9166C18.2502 22.9166 22.9168 18.2499 22.9168 12.4999C22.9168 6.74992 18.2502 2.08325 12.5002 2.08325ZM12.5002 6.24992C14.5106 6.24992 16.146 7.88533 16.146 9.89575C16.146 11.9062 14.5106 13.5416 12.5002 13.5416C10.4897 13.5416 8.85433 11.9062 8.85433 9.89575C8.85433 7.88533 10.4897 6.24992 12.5002 6.24992ZM12.5002 20.8333C10.3856 20.8333 7.88558 19.9791 6.10433 17.8333C7.86475 16.4583 10.0835 15.6249 12.5002 15.6249C14.9168 15.6249 17.1356 16.4583 18.896 17.8333C17.1147 19.9791 14.6147 20.8333 12.5002 20.8333Z" fill="#EB6263"/>
</g>
</g>
</svg>
