<svg width="30" height="30" viewBox="0 0 30 30" fill="none" xmlns="http://www.w3.org/2000/svg">
<path fill-rule="evenodd" clip-rule="evenodd" d="M15 0.0298462C6.7125 0.0298462 0 6.90528 0 15.3939C0 22.1925 4.29375 27.9349 10.2562 29.9706C11.0062 30.1051 11.2875 29.6441 11.2875 29.2408C11.2875 28.8759 11.2688 27.666 11.2688 26.3793C7.5 27.0898 6.525 25.4382 6.225 24.574C6.05625 24.1323 5.325 22.7687 4.6875 22.4038C4.1625 22.1157 3.4125 21.4051 4.66875 21.3859C5.85 21.3667 6.69375 22.4998 6.975 22.9607C8.325 25.2846 10.4813 24.6316 11.3438 24.2283C11.475 23.2296 11.8687 22.5574 12.3 22.1733C8.9625 21.7892 5.475 20.4641 5.475 14.5873C5.475 12.9165 6.05625 11.5337 7.0125 10.4582C6.8625 10.0741 6.3375 8.4993 7.1625 6.38674C7.1625 6.38674 8.41875 5.98343 11.2875 7.96156C12.4875 7.61587 13.7625 7.44302 15.0375 7.44302C16.3125 7.44302 17.5875 7.61587 18.7875 7.96156C21.6562 5.96423 22.9125 6.38674 22.9125 6.38674C23.7375 8.4993 23.2125 10.0741 23.0625 10.4582C24.0188 11.5337 24.6 12.8973 24.6 14.5873C24.6 20.4833 21.0938 21.7892 17.7563 22.1733C18.3 22.6535 18.7688 23.5753 18.7688 25.0157C18.7688 27.0706 18.75 28.7223 18.75 29.2408C18.75 29.6441 19.0312 30.1243 19.7812 29.9706C25.7063 27.9349 30 22.1733 30 15.3939C30 6.90528 23.2875 0.0298462 15 0.0298462Z" fill="#EB6263"/>
</svg>
