<svg width="45" height="45" viewBox="0 0 45 45" fill="none" xmlns="http://www.w3.org/2000/svg">
<g id="ICON_ZIGGLE_INVERT 1">
<g id="Group">
<g id="Clip path group">
<mask id="mask0_776_226" style="mask-type:luminance" maskUnits="userSpaceOnUse" x="7" y="10" width="29" height="25">
<g id="clip0">
<path id="Vector" d="M35.5565 10.3784H7.42285V34.61H35.5565V10.3784Z" fill="white"/>
</g>
</mask>
<g mask="url(#mask0_776_226)">
<g id="Group_2">
<g id="Clip path group_2">
<mask id="mask1_776_226" style="mask-type:luminance" maskUnits="userSpaceOnUse" x="7" y="10" width="29" height="25">
<g id="clip1">
<path id="Vector_2" d="M35.5565 10.3784H7.42285V34.61H35.5565V10.3784Z" fill="white"/>
</g>
</mask>
<g mask="url(#mask1_776_226)">
<g id="Group_3">
<g id="Clip path group_3">
<mask id="mask2_776_226" style="mask-type:luminance" maskUnits="userSpaceOnUse" x="7" y="10" width="29" height="25">
<g id="clip2">
<path id="Vector_3" d="M35.5565 10.3784H7.42285V34.61H35.5565V10.3784Z" fill="white"/>
</g>
</mask>
<g mask="url(#mask2_776_226)">
<g id="Group_4">
<path id="Vector_4" d="M7.46479 17.3229C7.59323 16.6736 8.12792 16.4181 8.97811 16.5912C11.9712 17.2014 14.1435 19.9886 14.1658 23.3036C14.184 25.8855 14.1547 23.6052 14.1658 26.1885C14.1812 28.6182 14.2315 31.8299 16.4205 32.4164C16.7891 32.4935 17.1621 32.5486 17.5373 32.5811C17.5569 33.2556 17.582 33.93 17.6043 34.6044H17.5918C12.4124 34.7971 12.1611 30.1906 12.1471 26.4329C12.1332 23.7965 12.1471 26.0237 12.1402 23.3874C12.1402 20.9381 10.8405 19.2401 8.49787 18.5866C7.71189 18.3688 7.34613 17.9178 7.46479 17.3229Z" fill="#EB6263"/>
<path id="Vector_5" d="M33.6881 17.0087L33.4675 12.0432L30.9546 15.5732C31.8936 15.9966 32.8064 16.476 33.6881 17.0087Z" fill="#EB6263"/>
<path id="Vector_6" d="M33.864 32.9371H32.7374C29.4175 27.7399 32.1788 22.2898 32.1788 22.2898C34.1069 20.6896 34.594 20.4271 34.9528 18.9609C35.0353 18.6285 34.4126 18.07 33.5778 17.5114C32.6327 16.9223 31.6425 16.4087 30.6167 15.9754C30.5036 15.9349 30.3975 15.8986 30.304 15.8721L26.3658 10.3899L25.3117 16.0815C17.6334 28.0638 18.5925 34.6101 18.5925 34.6101H35.5364C35.5349 33.6868 34.787 32.9387 33.864 32.9371ZM26.3783 16.46C26.4467 15.974 26.9088 13.0137 26.9088 13.0137L29.081 15.7492L26.3783 16.46Z" fill="#EB6263"/>
</g>
</g>
</g>
</g>
</g>
</g>
</g>
</g>
</g>
</g>
<g id="Group_5">
<path id="Vector_7" d="M24.7903 28.2004L25.2324 27.4646C24.4685 27.3206 23.6605 27.6541 23.2374 28.3587C22.6945 29.2623 22.9882 30.4393 23.892 30.9823C24.7956 31.5251 25.9727 31.2315 26.5154 30.3277C26.9385 29.6233 26.8535 28.7531 26.3676 28.1464L25.9255 28.8823C26.0696 29.2117 26.0587 29.603 25.8598 29.9338C25.5342 30.4763 24.828 30.6524 24.2857 30.3266C23.7434 30.0008 23.5673 29.2947 23.893 28.7526C24.0918 28.4215 24.432 28.2279 24.7903 28.2004Z" fill="white"/>
<path id="Vector_8" d="M26.7796 27.4607C27.6191 28.3096 27.8136 29.6521 27.1712 30.7215C26.4111 31.9869 24.7635 32.398 23.4983 31.6379C22.2329 30.878 21.8218 29.2302 22.5818 27.9648C23.224 26.8955 24.5006 26.4365 25.6444 26.7787L26.0477 26.1071C24.5321 25.5582 22.7866 26.1386 21.9261 27.571C20.9489 29.1977 21.4775 31.3164 23.1043 32.2935C24.7313 33.2708 26.8497 32.7422 27.8269 31.1152C28.6874 29.6826 28.3797 27.8691 27.1829 26.7889L26.7796 27.4607Z" fill="white"/>
<path id="Vector_9" d="M29.3389 23.9637C29.2932 23.8984 29.212 23.8714 29.1334 23.8948L27.9328 24.2549L27.6869 23.026C27.6705 22.9456 27.6086 22.8868 27.5294 22.8768C27.4507 22.867 27.3704 22.9082 27.3264 22.9811L26.3535 24.601L26.6373 26.0173L24.8685 28.9619C24.7418 28.9647 24.619 29.0295 24.5489 29.1462C24.44 29.3274 24.4986 29.5622 24.6798 29.671C24.8608 29.7799 25.0958 29.7213 25.2046 29.5401C25.2746 29.4234 25.2742 29.2845 25.2171 29.1712L26.9857 26.2265L28.3693 25.8118L29.3422 24.1917C29.3861 24.1188 29.3847 24.0289 29.3389 23.9637Z" fill="white"/>
</g>
</g>
</svg>
