<svg width="88" height="45" viewBox="0 0 88 45" fill="none" xmlns="http://www.w3.org/2000/svg">
<mask id="mask0_776_33" style="mask-type:luminance" maskUnits="userSpaceOnUse" x="7" y="10" width="29" height="25">
<path d="M35.5567 10.3784H7.42303V34.6101H35.5567V10.3784Z" fill="white"/>
</mask>
<g mask="url(#mask0_776_33)">
<mask id="mask1_776_33" style="mask-type:luminance" maskUnits="userSpaceOnUse" x="7" y="10" width="29" height="25">
<path d="M35.5567 10.3784H7.42303V34.6101H35.5567V10.3784Z" fill="white"/>
</mask>
<g mask="url(#mask1_776_33)">
<mask id="mask2_776_33" style="mask-type:luminance" maskUnits="userSpaceOnUse" x="7" y="10" width="29" height="25">
<path d="M35.5567 10.3784H7.42303V34.6101H35.5567V10.3784Z" fill="white"/>
</mask>
<g mask="url(#mask2_776_33)">
<path d="M7.4651 17.3228C7.59353 16.6735 8.12822 16.4179 8.97842 16.5911C11.9716 17.2013 14.1438 19.9884 14.1661 23.3034C14.1843 25.8853 14.155 23.605 14.1661 26.1883C14.1815 28.618 14.2318 31.8297 16.4208 32.4162C16.7894 32.4933 17.1624 32.5484 17.5376 32.581C17.5572 33.2555 17.5823 33.9298 17.6046 34.6043H17.5921C12.4127 34.797 12.1614 30.1904 12.1475 26.4328C12.1335 23.7963 12.1475 26.0235 12.1405 23.3872C12.1405 20.938 10.8408 19.24 8.49818 18.5865C7.7122 18.3687 7.34643 17.9176 7.4651 17.3228Z" fill="#EB6263"/>
<path d="M33.6886 17.0087L33.4679 12.0432L30.9551 15.5732C31.8941 15.9966 32.8069 16.476 33.6886 17.0087Z" fill="#EB6263"/>
<path d="M33.8645 32.9371H32.7379C29.4181 27.7399 32.1794 22.2898 32.1794 22.2898C34.1074 20.6895 34.5946 20.427 34.9534 18.9608C35.0358 18.6285 34.4131 18.07 33.5783 17.5114C32.6332 16.9223 31.643 16.4087 30.6172 15.9754C30.5042 15.9349 30.3981 15.8986 30.3046 15.8721L26.3663 10.3899L25.3122 16.0815C17.634 28.0638 18.5931 34.61 18.5931 34.61H35.537C35.5355 33.6867 34.7875 32.9387 33.8645 32.9371ZM26.3788 16.4599C26.4473 15.974 26.9094 13.0137 26.9094 13.0137L29.0816 15.7492L26.3788 16.4599Z" fill="#EB6263"/>
</g>
</g>
</g>
<path d="M24.7905 28.2003L25.2326 27.4645C24.4687 27.3205 23.6606 27.6541 23.2376 28.3586C22.6947 29.2622 22.9884 30.4392 23.8922 30.9822C24.7958 31.5251 25.9729 31.2314 26.5156 30.3276C26.9387 29.6232 26.8537 28.753 26.3678 28.1463L25.9257 28.8822C26.0697 29.2116 26.0588 29.6029 25.86 29.9337C25.5343 30.4762 24.8282 30.6523 24.2859 30.3265C23.7436 30.0007 23.5674 29.2947 23.8932 28.7525C24.0919 28.4214 24.4322 28.2278 24.7905 28.2003Z" fill="white"/>
<path d="M26.7797 27.4607C27.6192 28.3097 27.8137 29.6522 27.1713 30.7215C26.4112 31.987 24.7637 32.398 23.4984 31.6379C22.233 30.878 21.8219 29.2303 22.582 27.9649C23.2241 26.8956 24.5008 26.4366 25.6445 26.7788L26.0478 26.1071C24.5322 25.5582 22.7867 26.1386 21.9262 27.571C20.949 29.1977 21.4776 31.3165 23.1045 32.2935C24.7314 33.2708 26.8499 32.7423 27.827 31.1153C28.6876 29.6827 28.3798 27.8691 27.183 26.7889L26.7797 27.4607Z" fill="white"/>
<path d="M29.3389 23.9636C29.2932 23.8983 29.212 23.8713 29.1334 23.8948L27.9328 24.2548L27.6869 23.0259C27.6705 22.9455 27.6086 22.8867 27.5294 22.8767C27.4507 22.8669 27.3704 22.9081 27.3264 22.981L26.3535 24.6009L26.6373 26.0172L24.8685 28.9618C24.7418 28.9646 24.619 29.0294 24.5489 29.1461C24.44 29.3273 24.4986 29.5621 24.6798 29.6709C24.8608 29.7798 25.0958 29.7212 25.2046 29.54C25.2746 29.4233 25.2742 29.2844 25.2171 29.1711L26.9857 26.2264L28.3693 25.8117L29.3422 24.1916C29.3861 24.1187 29.3847 24.0288 29.3389 23.9636Z" fill="white"/>
<path d="M53.1921 26.618H48.0801L47.0541 29.462H43.2021L48.8541 14.234H52.4361L58.0701 29.462H54.2181L53.1921 26.618ZM53.9301 20.822C53.3061 20.822 52.7841 20.69 52.3641 20.426C51.9561 20.162 51.6201 19.802 51.3561 19.346C51.1041 18.89 50.9241 18.368 50.8161 17.78C50.7081 17.18 50.6481 16.544 50.6361 15.872C50.6241 16.544 50.5581 17.18 50.4381 17.78C50.3301 18.368 50.1501 18.89 49.8981 19.346C49.6461 19.802 49.3101 20.162 48.8901 20.426C48.4701 20.69 47.9541 20.822 47.3421 20.822C47.9781 20.822 48.5061 20.972 48.9261 21.272C49.3461 21.56 49.6821 21.95 49.9341 22.442C50.1861 22.922 50.3661 23.474 50.4741 24.098C50.5821 24.71 50.6361 25.34 50.6361 25.988C50.6361 25.34 50.6901 24.71 50.7981 24.098C50.9061 23.474 51.0861 22.922 51.3381 22.442C51.5901 21.95 51.9261 21.56 52.3461 21.272C52.7661 20.972 53.2941 20.822 53.9301 20.822ZM69.4492 14.234H73.7872V29.462H70.4212V23.18C70.4212 22.952 70.4272 22.682 70.4392 22.37C70.4632 22.058 70.4872 21.74 70.5112 21.416C70.5352 21.08 70.5592 20.744 70.5832 20.408C70.6192 20.072 70.6492 19.766 70.6732 19.49L67.7212 29.102H65.0392L62.0872 19.49C62.1112 19.766 62.1352 20.072 62.1592 20.408C62.1952 20.744 62.2252 21.08 62.2492 21.416C62.2732 21.74 62.2912 22.058 62.3032 22.37C62.3272 22.682 62.3392 22.952 62.3392 23.18V29.462H58.9732V14.234H63.3112L65.8672 22.316C65.9752 22.736 66.0712 23.15 66.1552 23.558C66.2392 23.954 66.3112 24.356 66.3712 24.764C66.4432 24.356 66.5152 23.954 66.5872 23.558C66.6712 23.15 66.7732 22.736 66.8932 22.316L69.4492 14.234ZM81.3086 29.696C80.4086 29.696 79.5746 29.582 78.8066 29.354C78.0386 29.126 77.3726 28.796 76.8086 28.364C76.2566 27.932 75.8246 27.41 75.5126 26.798C75.2006 26.174 75.0446 25.472 75.0446 24.692H78.6986C78.6986 24.992 78.7646 25.268 78.8966 25.52C79.0406 25.772 79.2326 25.988 79.4726 26.168C79.7126 26.348 79.9946 26.486 80.3186 26.582C80.6426 26.678 80.9846 26.726 81.3446 26.726C81.6566 26.726 81.9446 26.684 82.2086 26.6C82.4726 26.516 82.7006 26.408 82.8926 26.276C83.0966 26.132 83.2526 25.97 83.3606 25.79C83.4686 25.61 83.5226 25.418 83.5226 25.214C83.5226 25.046 83.4686 24.89 83.3606 24.746C83.2646 24.602 83.1386 24.47 82.9826 24.35C82.8266 24.218 82.6466 24.104 82.4426 24.008C82.2506 23.9 82.0646 23.81 81.8846 23.738L78.1766 22.208C77.3846 21.872 76.7546 21.41 76.2866 20.822C75.8186 20.234 75.5846 19.43 75.5846 18.41C75.5846 17.738 75.7286 17.132 76.0166 16.592C76.3166 16.052 76.7186 15.59 77.2226 15.206C77.7386 14.822 78.3446 14.528 79.0406 14.324C79.7486 14.108 80.5166 14 81.3446 14C82.0886 14 82.7906 14.114 83.4506 14.342C84.1106 14.558 84.6866 14.87 85.1786 15.278C85.6706 15.674 86.0546 16.154 86.3306 16.718C86.6186 17.282 86.7626 17.906 86.7626 18.59H83.3786C83.3786 18.362 83.3186 18.152 83.1986 17.96C83.0906 17.756 82.9406 17.582 82.7486 17.438C82.5686 17.282 82.3526 17.162 82.1006 17.078C81.8606 16.994 81.6086 16.952 81.3446 16.952C81.0926 16.952 80.8526 16.982 80.6246 17.042C80.3966 17.102 80.1926 17.192 80.0126 17.312C79.8446 17.42 79.7066 17.558 79.5986 17.726C79.4906 17.882 79.4366 18.056 79.4366 18.248C79.4366 18.428 79.4726 18.584 79.5446 18.716C79.6166 18.848 79.7246 18.968 79.8686 19.076C80.0126 19.184 80.1926 19.292 80.4086 19.4C80.6246 19.496 80.8766 19.604 81.1646 19.724L84.8186 21.236C85.1906 21.392 85.5266 21.578 85.8266 21.794C86.1386 22.01 86.4086 22.268 86.6366 22.568C86.8646 22.856 87.0386 23.192 87.1586 23.576C87.2906 23.948 87.3566 24.374 87.3566 24.854C87.3566 25.454 87.2126 26.048 86.9246 26.636C86.6366 27.212 86.2286 27.728 85.7006 28.184C85.1846 28.64 84.5486 29.006 83.7926 29.282C83.0486 29.558 82.2206 29.696 81.3086 29.696Z" fill="#EB6263"/>
</svg>
