<svg width="88" height="45" viewBox="0 0 88 45" fill="none" xmlns="http://www.w3.org/2000/svg">
<mask id="mask0_786_957" style="mask-type:luminance" maskUnits="userSpaceOnUse" x="7" y="10" width="29" height="25">
<path d="M35.5568 10.3784H7.4231V34.6101H35.5568V10.3784Z" fill="white"/>
</mask>
<g mask="url(#mask0_786_957)">
<mask id="mask1_786_957" style="mask-type:luminance" maskUnits="userSpaceOnUse" x="7" y="10" width="29" height="25">
<path d="M35.5568 10.3784H7.4231V34.6101H35.5568V10.3784Z" fill="white"/>
</mask>
<g mask="url(#mask1_786_957)">
<mask id="mask2_786_957" style="mask-type:luminance" maskUnits="userSpaceOnUse" x="7" y="10" width="29" height="25">
<path d="M35.5568 10.3784H7.4231V34.6101H35.5568V10.3784Z" fill="white"/>
</mask>
<g mask="url(#mask2_786_957)">
<path d="M7.46516 17.323C7.59359 16.6737 8.12828 16.4182 8.97848 16.5913C11.9716 17.2015 14.1439 19.9887 14.1662 23.3037C14.1844 25.8856 14.155 23.6053 14.1662 26.1886C14.1816 28.6183 14.2318 31.83 16.4208 32.4165C16.7895 32.4936 17.1625 32.5487 17.5377 32.5812C17.5572 33.2557 17.5824 33.93 17.6047 34.6045H17.5921C12.4128 34.7972 12.1615 30.1907 12.1475 26.433C12.1336 23.7966 12.1475 26.0238 12.1405 23.3875C12.1405 20.9382 10.8408 19.2402 8.49824 18.5867C7.71226 18.3689 7.34649 17.9179 7.46516 17.323Z" fill="#EB6263"/>
<path d="M33.6887 17.0088L33.4681 12.0433L30.9552 15.5734C31.8942 15.9968 32.807 16.4761 33.6887 17.0088Z" fill="#EB6263"/>
<path d="M33.8646 32.9372H32.738C29.4182 27.74 32.1795 22.2899 32.1795 22.2899C34.1075 20.6897 34.5947 20.4271 34.9535 18.961C35.0359 18.6286 34.4132 18.0701 33.5784 17.5115C32.6333 16.9224 31.6431 16.4088 30.6173 15.9755C30.5043 15.935 30.3982 15.8987 30.3046 15.8722L26.3664 10.39L25.3123 16.0816C17.634 28.0639 18.5931 34.6102 18.5931 34.6102H35.537C35.5355 33.6868 34.7876 32.9388 33.8646 32.9372ZM26.3789 16.46C26.4473 15.9741 26.9094 13.0138 26.9094 13.0138L29.0816 15.7493L26.3789 16.46Z" fill="#EB6263"/>
</g>
</g>
</g>
<path d="M24.7905 28.2004L25.2325 27.4646C24.4686 27.3206 23.6606 27.6542 23.2375 28.3587C22.6947 29.2623 22.9883 30.4393 23.8921 30.9823C24.7957 31.5252 25.9728 31.2315 26.5156 30.3277C26.9387 29.6234 26.8536 28.7531 26.3677 28.1464L25.9257 28.8823C26.0697 29.2117 26.0588 29.603 25.86 29.9339C25.5343 30.4763 24.8282 30.6525 24.2858 30.3266C23.7436 30.0009 23.5674 29.2948 23.8931 28.7526C24.0919 28.4215 24.4322 28.2279 24.7905 28.2004Z" fill="white"/>
<path d="M26.7796 27.4606C27.6191 28.3096 27.8136 29.652 27.1712 30.7214C26.4111 31.9868 24.7635 32.3979 23.4983 31.6378C22.2329 30.8779 21.8218 29.2302 22.5818 27.9648C23.224 26.8955 24.5006 26.4364 25.6444 26.7787L26.0477 26.107C24.5321 25.5581 22.7866 26.1385 21.9261 27.5709C20.9489 29.1976 21.4775 31.3164 23.1043 32.2934C24.7313 33.2707 26.8497 32.7422 27.8269 31.1151C28.6874 29.6826 28.3797 27.869 27.1829 26.7888L26.7796 27.4606Z" fill="white"/>
<path d="M29.3388 23.9638C29.2931 23.8984 29.2118 23.8714 29.1333 23.8949L27.9327 24.255L27.6868 23.026C27.6704 22.9456 27.6084 22.8868 27.5292 22.8769C27.4505 22.867 27.3703 22.9083 27.3263 22.9811L26.3534 24.601L26.6371 26.0174L24.8684 28.962C24.7417 28.9647 24.6189 29.0295 24.5487 29.1462C24.4399 29.3274 24.4985 29.5622 24.6797 29.6711C24.8607 29.7799 25.0957 29.7213 25.2045 29.5401C25.2744 29.4234 25.2741 29.2845 25.217 29.1712L26.9856 26.2265L28.3692 25.8118L29.3421 24.1917C29.3859 24.1188 29.3845 24.0289 29.3388 23.9638Z" fill="white"/>
<path d="M53.1921 28.618H48.0801L47.0541 31.462H43.2021L48.8541 16.234H52.4361L58.0701 31.462H54.2181L53.1921 28.618ZM53.9301 22.822C53.3061 22.822 52.7841 22.69 52.3641 22.426C51.9561 22.162 51.6201 21.802 51.3561 21.346C51.1041 20.89 50.9241 20.368 50.8161 19.78C50.7081 19.18 50.6481 18.544 50.6361 17.872C50.6241 18.544 50.5581 19.18 50.4381 19.78C50.3301 20.368 50.1501 20.89 49.8981 21.346C49.6461 21.802 49.3101 22.162 48.8901 22.426C48.4701 22.69 47.9541 22.822 47.3421 22.822C47.9781 22.822 48.5061 22.972 48.9261 23.272C49.3461 23.56 49.6821 23.95 49.9341 24.442C50.1861 24.922 50.3661 25.474 50.4741 26.098C50.5821 26.71 50.6361 27.34 50.6361 27.988C50.6361 27.34 50.6901 26.71 50.7981 26.098C50.9061 25.474 51.0861 24.922 51.3381 24.442C51.5901 23.95 51.9261 23.56 52.3461 23.272C52.7661 22.972 53.2941 22.822 53.9301 22.822ZM69.4492 16.234H73.7872V31.462H70.4212V25.18C70.4212 24.952 70.4272 24.682 70.4392 24.37C70.4632 24.058 70.4872 23.74 70.5112 23.416C70.5352 23.08 70.5592 22.744 70.5832 22.408C70.6192 22.072 70.6492 21.766 70.6732 21.49L67.7212 31.102H65.0392L62.0872 21.49C62.1112 21.766 62.1352 22.072 62.1592 22.408C62.1952 22.744 62.2252 23.08 62.2492 23.416C62.2732 23.74 62.2912 24.058 62.3032 24.37C62.3272 24.682 62.3392 24.952 62.3392 25.18V31.462H58.9732V16.234H63.3112L65.8672 24.316C65.9752 24.736 66.0712 25.15 66.1552 25.558C66.2392 25.954 66.3112 26.356 66.3712 26.764C66.4432 26.356 66.5152 25.954 66.5872 25.558C66.6712 25.15 66.7732 24.736 66.8932 24.316L69.4492 16.234ZM81.3086 31.696C80.4086 31.696 79.5746 31.582 78.8066 31.354C78.0386 31.126 77.3726 30.796 76.8086 30.364C76.2566 29.932 75.8246 29.41 75.5126 28.798C75.2006 28.174 75.0446 27.472 75.0446 26.692H78.6986C78.6986 26.992 78.7646 27.268 78.8966 27.52C79.0406 27.772 79.2326 27.988 79.4726 28.168C79.7126 28.348 79.9946 28.486 80.3186 28.582C80.6426 28.678 80.9846 28.726 81.3446 28.726C81.6566 28.726 81.9446 28.684 82.2086 28.6C82.4726 28.516 82.7006 28.408 82.8926 28.276C83.0966 28.132 83.2526 27.97 83.3606 27.79C83.4686 27.61 83.5226 27.418 83.5226 27.214C83.5226 27.046 83.4686 26.89 83.3606 26.746C83.2646 26.602 83.1386 26.47 82.9826 26.35C82.8266 26.218 82.6466 26.104 82.4426 26.008C82.2506 25.9 82.0646 25.81 81.8846 25.738L78.1766 24.208C77.3846 23.872 76.7546 23.41 76.2866 22.822C75.8186 22.234 75.5846 21.43 75.5846 20.41C75.5846 19.738 75.7286 19.132 76.0166 18.592C76.3166 18.052 76.7186 17.59 77.2226 17.206C77.7386 16.822 78.3446 16.528 79.0406 16.324C79.7486 16.108 80.5166 16 81.3446 16C82.0886 16 82.7906 16.114 83.4506 16.342C84.1106 16.558 84.6866 16.87 85.1786 17.278C85.6706 17.674 86.0546 18.154 86.3306 18.718C86.6186 19.282 86.7626 19.906 86.7626 20.59H83.3786C83.3786 20.362 83.3186 20.152 83.1986 19.96C83.0906 19.756 82.9406 19.582 82.7486 19.438C82.5686 19.282 82.3526 19.162 82.1006 19.078C81.8606 18.994 81.6086 18.952 81.3446 18.952C81.0926 18.952 80.8526 18.982 80.6246 19.042C80.3966 19.102 80.1926 19.192 80.0126 19.312C79.8446 19.42 79.7066 19.558 79.5986 19.726C79.4906 19.882 79.4366 20.056 79.4366 20.248C79.4366 20.428 79.4726 20.584 79.5446 20.716C79.6166 20.848 79.7246 20.968 79.8686 21.076C80.0126 21.184 80.1926 21.292 80.4086 21.4C80.6246 21.496 80.8766 21.604 81.1646 21.724L84.8186 23.236C85.1906 23.392 85.5266 23.578 85.8266 23.794C86.1386 24.01 86.4086 24.268 86.6366 24.568C86.8646 24.856 87.0386 25.192 87.1586 25.576C87.2906 25.948 87.3566 26.374 87.3566 26.854C87.3566 27.454 87.2126 28.048 86.9246 28.636C86.6366 29.212 86.2286 29.728 85.7006 30.184C85.1846 30.64 84.5486 31.006 83.7926 31.282C83.0486 31.558 82.2206 31.696 81.3086 31.696Z" fill="#EB6263"/>
</svg>
