<svg width="207" height="31" viewBox="0 0 207 31" fill="none" xmlns="http://www.w3.org/2000/svg">
<path d="M8.21289 29H0.932617V1.00684H8.21289V29ZM42.0508 29H34.7705L21.3789 11.8555V29H14.0986V1.00684H21.3789L34.7705 18.1309V1.00684H42.0508V29ZM63.9736 7.09766H55.2168V11.835H63.1943V17.9258H55.2168V29H47.9365V1.00684H63.9736V7.09766ZM98.0576 15.0957C98.0576 18.8965 96.793 22.2324 94.2637 25.1035C91.3789 28.3711 87.4756 30.0049 82.5537 30.0049C77.6455 30.0049 73.749 28.3711 70.8643 25.1035C68.335 22.2324 67.0703 18.8965 67.0703 15.0957C67.0703 13.3594 67.4121 11.582 68.0957 9.76367C68.7793 7.93164 69.6953 6.36621 70.8438 5.06738C73.7285 1.7998 77.6318 0.166016 82.5537 0.166016C87.4756 0.166016 91.3789 1.7998 94.2637 5.06738C96.793 7.93848 98.0576 11.2812 98.0576 15.0957ZM90.4902 15.0957C90.4902 13.127 89.8613 11.4248 88.6035 9.98926C86.9902 8.15723 84.9736 7.24121 82.5537 7.24121C80.8857 7.24121 79.375 7.71289 78.0215 8.65625C76.668 9.58594 75.7041 10.8301 75.1299 12.3887C74.8018 13.2773 74.6377 14.1797 74.6377 15.0957C74.6377 16.9824 75.2666 18.6709 76.5244 20.1611C78.083 22.0068 80.0928 22.9297 82.5537 22.9297C85.0146 22.9297 87.0312 22.0137 88.6035 20.1816C89.8613 18.7188 90.4902 17.0234 90.4902 15.0957ZM119.283 7.09766H113.254V29H105.974V7.09766H100.047V1.00684H119.283V7.09766ZM138.438 29H122.503V1.00684H138.438V7.09766H129.783V11.835H137.966V17.9258H129.783V22.9092H138.438V29ZM169.65 29H161.878L160.073 24.1191H150.024L148.097 29H140.406L151.173 1.00684H159.109L169.65 29ZM158.104 18.582L155.09 9.66113L152.034 18.582H158.104ZM206.708 29H199.428L197.356 12.8809L190.589 29H187.697L181.237 12.8809L178.858 29H171.619L176.377 1.00684H183.555L189.235 15.9365L195.244 1.00684H202.483L206.708 29Z" fill="#EB6263"/>
</svg>
