<svg width="45" height="16" viewBox="0 0 45 16" fill="none" xmlns="http://www.w3.org/2000/svg">
<path d="M10.1921 12.618H5.08015L4.05415 15.462H0.202148L5.85415 0.233999H9.43615L15.0701 15.462H11.2181L10.1921 12.618ZM10.9301 6.822C10.3061 6.822 9.78415 6.69 9.36415 6.426C8.95615 6.162 8.62015 5.802 8.35615 5.346C8.10415 4.89 7.92415 4.368 7.81615 3.78C7.70815 3.18 7.64815 2.544 7.63615 1.872C7.62415 2.544 7.55815 3.18 7.43815 3.78C7.33015 4.368 7.15015 4.89 6.89815 5.346C6.64615 5.802 6.31015 6.162 5.89015 6.426C5.47015 6.69 4.95415 6.822 4.34215 6.822C4.97815 6.822 5.50615 6.972 5.92615 7.272C6.34615 7.56 6.68215 7.95 6.93415 8.442C7.18615 8.922 7.36615 9.474 7.47415 10.098C7.58215 10.71 7.63615 11.34 7.63615 11.988C7.63615 11.34 7.69015 10.71 7.79815 10.098C7.90615 9.474 8.08615 8.922 8.33815 8.442C8.59015 7.95 8.92615 7.56 9.34615 7.272C9.76615 6.972 10.2941 6.822 10.9301 6.822ZM26.4492 0.233999H30.7872V15.462H27.4212V9.18C27.4212 8.952 27.4272 8.682 27.4392 8.37C27.4632 8.058 27.4872 7.74 27.5112 7.416C27.5352 7.08 27.5592 6.744 27.5832 6.408C27.6192 6.072 27.6492 5.766 27.6732 5.49L24.7212 15.102H22.0392L19.0872 5.49C19.1112 5.766 19.1352 6.072 19.1592 6.408C19.1952 6.744 19.2252 7.08 19.2492 7.416C19.2732 7.74 19.2912 8.058 19.3032 8.37C19.3272 8.682 19.3392 8.952 19.3392 9.18V15.462H15.9732V0.233999H20.3112L22.8672 8.316C22.9752 8.736 23.0712 9.15 23.1552 9.558C23.2392 9.954 23.3112 10.356 23.3712 10.764C23.4432 10.356 23.5152 9.954 23.5872 9.558C23.6712 9.15 23.7732 8.736 23.8932 8.316L26.4492 0.233999ZM38.3086 15.696C37.4086 15.696 36.5746 15.582 35.8066 15.354C35.0386 15.126 34.3726 14.796 33.8086 14.364C33.2566 13.932 32.8246 13.41 32.5126 12.798C32.2006 12.174 32.0446 11.472 32.0446 10.692H35.6986C35.6986 10.992 35.7646 11.268 35.8966 11.52C36.0406 11.772 36.2326 11.988 36.4726 12.168C36.7126 12.348 36.9946 12.486 37.3186 12.582C37.6426 12.678 37.9846 12.726 38.3446 12.726C38.6566 12.726 38.9446 12.684 39.2086 12.6C39.4726 12.516 39.7006 12.408 39.8926 12.276C40.0966 12.132 40.2526 11.97 40.3606 11.79C40.4686 11.61 40.5226 11.418 40.5226 11.214C40.5226 11.046 40.4686 10.89 40.3606 10.746C40.2646 10.602 40.1386 10.47 39.9826 10.35C39.8266 10.218 39.6466 10.104 39.4426 10.008C39.2506 9.9 39.0646 9.81 38.8846 9.738L35.1766 8.208C34.3846 7.872 33.7546 7.41 33.2866 6.822C32.8186 6.234 32.5846 5.43 32.5846 4.41C32.5846 3.738 32.7286 3.132 33.0166 2.592C33.3166 2.052 33.7186 1.59 34.2226 1.206C34.7386 0.821999 35.3446 0.527999 36.0406 0.323999C36.7486 0.107999 37.5166 -1.07288e-06 38.3446 -1.07288e-06C39.0886 -1.07288e-06 39.7906 0.113999 40.4506 0.342C41.1106 0.557999 41.6866 0.869999 42.1786 1.278C42.6706 1.674 43.0546 2.154 43.3306 2.718C43.6186 3.282 43.7626 3.906 43.7626 4.59H40.3786C40.3786 4.362 40.3186 4.152 40.1986 3.96C40.0906 3.756 39.9406 3.582 39.7486 3.438C39.5686 3.282 39.3526 3.162 39.1006 3.078C38.8606 2.994 38.6086 2.952 38.3446 2.952C38.0926 2.952 37.8526 2.982 37.6246 3.042C37.3966 3.102 37.1926 3.192 37.0126 3.312C36.8446 3.42 36.7066 3.558 36.5986 3.726C36.4906 3.882 36.4366 4.056 36.4366 4.248C36.4366 4.428 36.4726 4.584 36.5446 4.716C36.6166 4.848 36.7246 4.968 36.8686 5.076C37.0126 5.184 37.1926 5.292 37.4086 5.4C37.6246 5.496 37.8766 5.604 38.1646 5.724L41.8186 7.236C42.1906 7.392 42.5266 7.578 42.8266 7.794C43.1386 8.01 43.4086 8.268 43.6366 8.568C43.8646 8.856 44.0386 9.192 44.1586 9.576C44.2906 9.948 44.3566 10.374 44.3566 10.854C44.3566 11.454 44.2126 12.048 43.9246 12.636C43.6366 13.212 43.2286 13.728 42.7006 14.184C42.1846 14.64 41.5486 15.006 40.7926 15.282C40.0486 15.558 39.2206 15.696 38.3086 15.696Z" fill="#EB6263"/>
</svg>
